<svg width="88" height="89" viewBox="0 0 88 89" fill="none" xmlns="http://www.w3.org/2000/svg">
<rect x="0.776984" y="0.776984" width="85.4683" height="87.446" rx="42.7341" fill="#FDFCFA"/>
<rect x="0.776984" y="0.776984" width="85.4683" height="87.446" rx="42.7341" stroke="#E2E3E4" stroke-width="1.55397"/>
<g clip-path="url(#clip0_887_3106)">
<path d="M62.6666 52.6692L60.1141 54.2098C59.4525 53.161 58.591 52.2096 57.5383 51.4128L57.1418 51.1124L60.4415 49.121C62.9645 47.5979 63.7542 44.3453 62.2016 41.8695C61.4496 40.6709 60.2668 39.831 58.8704 39.5045C58.454 39.4071 58.0335 39.3594 57.6157 39.3594C56.6336 39.3594 55.668 39.6247 54.8105 40.1428L48.0434 44.2278L46.9825 44.8674L43.1158 47.2021L42.0549 47.8424L34.3892 52.4696L30.793 49.7485L38.4594 45.1213L39.5202 44.481L43.387 42.147L44.4478 41.5067L52.5847 36.5953C54.7735 35.2744 57.3548 34.8686 59.8546 35.4524C62.3536 36.0363 64.4719 37.5399 65.8184 39.6866C68.5976 44.1182 67.184 49.942 62.6666 52.6692Z" fill="#FF774D"/>
<path d="M54.5136 57.5899L47.0821 62.0753L46.0219 62.7149L42.1545 65.0497L41.0936 65.6893L39.4732 66.6676C37.9056 67.6142 36.1667 68.0651 34.4484 68.0651C31.2158 68.0651 28.0551 66.4694 26.2402 63.5763C25.276 62.0384 24.8164 60.3325 24.8164 58.6468C24.8164 57.1055 25.1999 55.5817 25.9334 54.2178L29.3858 56.8307C28.8462 58.2907 28.9646 59.9703 29.8563 61.3927V61.3934C31.4089 63.8686 34.725 64.6432 37.2481 63.1201L37.4981 62.9689L38.5589 62.3286L42.4264 59.9945L43.4865 59.3542L51.1522 54.7271L53.5219 56.5203C53.9253 56.826 54.2567 57.1895 54.5136 57.5899Z" fill="#FF774D"/>
<path d="M34.314 53.8557L41.4407 59.2482L37.5732 61.5829L30.8383 56.4868L29.9116 55.7853L26.5421 53.2356L25.6162 52.5355L23.5157 50.9459C19.3161 47.7679 18.5347 41.8306 21.7741 37.7106C23.3431 35.7145 25.6107 34.4373 28.1591 34.1148C30.7068 33.7916 33.2312 34.4621 35.2652 36.0014L42.4009 41.4012L38.5341 43.7353L32.6723 39.3003C31.6971 38.5619 30.5424 38.2051 29.3966 38.2051C27.7865 38.2051 26.1935 38.9099 25.1368 40.2543C23.3273 42.5555 23.7636 45.8719 26.1093 47.647L28.7474 49.6431L29.7322 50.3889L33.3284 53.1093L34.314 53.8557Z" fill="#FF5353"/>
<path d="M58.5666 65.5518C56.6744 67.9591 53.8219 69.2215 50.9393 69.2215C48.8881 69.2215 46.8219 68.5819 45.0755 67.2603L43.1387 65.795L47.0061 63.4602L47.6691 63.9621C50.0147 65.7372 53.3952 65.3092 55.2046 63.0081C56.3593 61.5393 56.5997 59.6561 56.0121 58.0248C55.8827 57.6653 55.7135 57.3186 55.5039 56.9908C55.1759 56.4748 54.7506 56.0072 54.2321 55.6148L52.2125 54.0863L51.2263 53.3405L44.0989 47.9474L47.9663 45.6133L55.093 51.0064L56.0792 51.7522L56.825 52.3166C57.7626 53.0261 58.5303 53.874 59.12 54.8079C59.3262 55.1337 59.5104 55.4697 59.6727 55.8143C59.6727 55.815 59.6727 55.815 59.6727 55.815C61.1308 58.907 60.8301 62.6728 58.5666 65.5518Z" fill="#FF5353"/>
<path d="M43.1422 36.1856C38.531 36.1856 34.7793 32.5051 34.7793 27.9814C34.7793 23.4577 38.531 19.7778 43.1422 19.7778C47.7534 19.7778 51.5051 23.4583 51.5051 27.9821C51.5051 32.5058 47.7534 36.1856 43.1422 36.1856ZM43.1422 24.0778C40.9479 24.0778 39.1624 25.8294 39.1624 27.9821C39.1624 30.1347 40.9479 31.8863 43.1422 31.8863C45.3365 31.8863 47.1219 30.1347 47.1219 27.9821C47.1219 25.8294 45.3365 24.0778 43.1422 24.0778Z" fill="#FF5353"/>
</g>
<defs>
<clipPath id="clip0_887_3106">
<rect width="47.4667" height="49.4444" fill="white" transform="translate(19.7773 19.7778)"/>
</clipPath>
</defs>
</svg>
