<svg width="24" height="28" viewBox="0 0 24 28" fill="none" xmlns="http://www.w3.org/2000/svg">
<path d="M22.9831 21.3018C22.5697 22.2568 22.0804 23.1358 21.5135 23.944C20.7407 25.0458 20.108 25.8084 19.6204 26.2319C18.8645 26.9271 18.0546 27.2831 17.1874 27.3033C16.5648 27.3033 15.814 27.1262 14.94 26.7668C14.0631 26.4091 13.2573 26.2319 12.5204 26.2319C11.7477 26.2319 10.9189 26.4091 10.0324 26.7668C9.14459 27.1262 8.42936 27.3135 7.88252 27.332C7.05088 27.3675 6.22193 27.0013 5.3945 26.2319C4.86639 25.7713 4.20583 24.9817 3.41451 23.863C2.56549 22.6684 1.86747 21.2832 1.32063 19.7039C0.734988 17.9981 0.441406 16.3463 0.441406 14.7471C0.441406 12.9153 0.837236 11.3353 1.63008 10.0113C2.25318 8.94785 3.08212 8.10895 4.11962 7.4931C5.15711 6.87726 6.27812 6.56343 7.48535 6.54335C8.14591 6.54335 9.01214 6.74767 10.0886 7.14924C11.162 7.55216 11.8513 7.75648 12.1535 7.75648C12.3794 7.75648 13.1451 7.51757 14.4431 7.04126C15.6705 6.59953 16.7065 6.41664 17.5552 6.48868C19.8549 6.67428 21.5827 7.58084 22.7317 9.2141C20.6749 10.4603 19.6575 12.2058 19.6778 14.4449C19.6963 16.189 20.329 17.6404 21.5726 18.7928C22.1361 19.3277 22.7654 19.7411 23.4656 20.0346C23.3138 20.475 23.1535 20.8968 22.9831 21.3018ZM17.7087 0.546843C17.7087 1.91387 17.2093 3.19027 16.2138 4.37168C15.0125 5.77615 13.5595 6.58772 11.9837 6.45966C11.9637 6.29566 11.952 6.12305 11.952 5.94167C11.952 4.62932 12.5233 3.22485 13.5379 2.07651C14.0444 1.49508 14.6886 1.01163 15.4698 0.625974C16.2493 0.246072 16.9866 0.0359777 17.6801 0C17.7003 0.182751 17.7087 0.365513 17.7087 0.546825V0.546843Z" fill="black"/>
</svg>
