<svg width="32" height="32" viewBox="0 0 32 32" fill="none" xmlns="http://www.w3.org/2000/svg">
<path d="M29.0023 16.2886C29.0023 15.2197 28.9138 14.4397 28.7222 13.6309H16.2676V18.4552H23.5782C23.4308 19.6542 22.6349 21.4597 20.8662 22.673L20.8414 22.8345L24.7793 25.8242L25.0521 25.8509C27.5578 23.5831 29.0023 20.2464 29.0023 16.2886Z" fill="#4285F4"/>
<path d="M16.2663 28.9998C19.8479 28.9998 22.8547 27.8442 25.0509 25.8509L20.8649 22.673C19.7448 23.4386 18.2413 23.973 16.2663 23.973C12.7584 23.973 9.78115 21.7053 8.71983 18.5708L8.56427 18.5837L4.46956 21.6893L4.41602 21.8352C6.59739 26.0819 11.0781 28.9998 16.2663 28.9998Z" fill="#34A853"/>
<path d="M8.71876 18.5713C8.43872 17.7624 8.27665 16.8957 8.27665 16.0002C8.27665 15.1045 8.43872 14.2379 8.70402 13.429L8.69661 13.2568L4.55058 10.1013L4.41493 10.1646C3.51588 11.9268 3 13.9057 3 16.0002C3 18.0946 3.51588 20.0734 4.41493 21.8357L8.71876 18.5713Z" fill="#FBBC05"/>
<path d="M16.2664 8.02663C18.7573 8.02663 20.4375 9.08107 21.3956 9.96224L25.1394 6.38C22.8401 4.28556 19.848 3 16.2664 3C11.0781 3 6.5974 5.91775 4.41602 10.1644L8.70512 13.4289C9.78118 10.2944 12.7585 8.02663 16.2664 8.02663Z" fill="#EB4335"/>
</svg>
