<svg width="74" height="65" viewBox="0 0 74 65" fill="none" xmlns="http://www.w3.org/2000/svg">
<path d="M34.25 3L34.25 1.5L32.75 1.5L3 1.5L1.5 1.5L1.5 3L1.49999 32.4173L1.49999 33.9173L2.99999 33.9173L10.2366 33.9173C9.97542 35.3111 9.4871 36.4482 8.80717 37.3661L8.78884 37.3909L8.77154 37.4164C7.932 38.6527 6.00694 39.9146 2.5504 41.0006L1.49999 41.3306L1.49999 42.4316L1.49999 61L1.49999 62.8504L3.31033 62.4675C12.7292 60.4758 20.3059 56.7514 25.9384 51.2214C31.4804 45.7803 34.25 38.9907 34.25 30.9568L34.25 3ZM72.5 3.00001L72.5 1.50001L71 1.50001L41.25 1.50001L39.75 1.5L39.75 3L39.75 32.4173L39.75 33.9173L41.25 33.9173L48.4866 33.9173C48.2263 35.3065 47.7403 36.4407 47.0639 37.357C46.06 38.6653 44.069 39.9308 40.7834 41.006L39.75 41.3443L39.75 42.4316L39.75 61L39.75 62.8504L41.5603 62.4675C50.9792 60.4758 58.556 56.7514 64.1884 51.2214C69.7304 45.7803 72.5 38.9907 72.5 30.9568L72.5 3.00001Z" fill="url(#paint0_linear_2561_3578)" stroke="#FCF1ED" stroke-width="3"/>
<defs>
<linearGradient id="paint0_linear_2561_3578" x1="3" y1="3" x2="2.99999" y2="61" gradientUnits="userSpaceOnUse">
<stop stop-color="#FF774D"/>
<stop offset="1" stop-color="#FC5A5A"/>
</linearGradient>
</defs>
</svg>
