<svg width="16" height="16" viewBox="0 0 16 16" fill="none" xmlns="http://www.w3.org/2000/svg">
<path d="M11.806 5.13807C12.0664 4.87772 12.0664 4.45561 11.806 4.19526C11.5457 3.93491 11.1236 3.93491 10.8632 4.19526L4.66797 10.3905L1.80604 7.5286C1.54569 7.26825 1.12358 7.26825 0.863231 7.5286C0.602881 7.78894 0.602881 8.21106 0.863231 8.4714L4.19656 11.8047C4.45691 12.0651 4.87902 12.0651 5.13937 11.8047L11.806 5.13807Z" fill="url(#paint0_linear_1235_3993)"/>
<path d="M15.1394 5.13807C15.3997 4.87772 15.3997 4.45561 15.1394 4.19526C14.879 3.93491 14.4569 3.93491 14.1966 4.19526L7.99816 10.3937C7.73647 10.1862 7.35507 10.2034 7.11323 10.4453C6.85288 10.7056 6.85288 11.1277 7.11323 11.3881L7.5299 11.8047C7.79025 12.0651 8.21236 12.0651 8.47271 11.8047L15.1394 5.13807Z" fill="url(#paint1_linear_1235_3993)"/>
<path d="M5.55604 7.94526L5.13937 7.5286C4.87902 7.26825 4.45691 7.26825 4.19656 7.5286C3.93621 7.78894 3.93621 8.21106 4.19656 8.4714L4.61323 8.88807C4.87358 9.14842 5.29569 9.14842 5.55604 8.88807C5.81639 8.62772 5.81639 8.20561 5.55604 7.94526Z" fill="url(#paint2_linear_1235_3993)"/>
<defs>
<linearGradient id="paint0_linear_1235_3993" x1="15.3346" y1="12" x2="15.3346" y2="4" gradientUnits="userSpaceOnUse">
<stop stop-color="#FF774D"/>
<stop offset="1" stop-color="#FC5A5A"/>
</linearGradient>
<linearGradient id="paint1_linear_1235_3993" x1="15.3346" y1="12" x2="15.3346" y2="4" gradientUnits="userSpaceOnUse">
<stop stop-color="#FF774D"/>
<stop offset="1" stop-color="#FC5A5A"/>
</linearGradient>
<linearGradient id="paint2_linear_1235_3993" x1="15.3346" y1="12" x2="15.3346" y2="4" gradientUnits="userSpaceOnUse">
<stop stop-color="#FF774D"/>
<stop offset="1" stop-color="#FC5A5A"/>
</linearGradient>
</defs>
</svg>
