<svg width="20" height="20" viewBox="0 0 20 20" fill="white" xmlns="http://www.w3.org/2000/svg">
<path fill-rule="evenodd" clip-rule="evenodd" d="M0.832031 10.0002C0.832031 4.93755 4.93609 0.833496 9.9987 0.833496C10.2197 0.833496 10.4317 0.921293 10.588 1.07757L18.9213 9.41091C19.0776 9.56719 19.1654 9.77915 19.1654 10.0002C19.1654 15.0628 15.0613 19.1668 9.9987 19.1668C4.93609 19.1668 0.832031 15.0628 0.832031 10.0002ZM8.90428 2.57944C5.28089 3.10919 2.4987 6.22977 2.4987 10.0002C2.4987 14.1423 5.85656 17.5002 9.9987 17.5002C13.7961 17.5002 16.9343 14.678 17.4304 11.0166C16.9759 11.0745 16.4069 11.1163 15.7757 11.0934C14.2201 11.0368 12.1983 10.5808 10.638 8.90054C9.09573 7.23959 8.74592 5.33887 8.77491 3.88975C8.78476 3.39716 8.83812 2.95237 8.90428 2.57944ZM10.48 3.32663L16.5747 9.42133C16.3441 9.43346 16.0961 9.43724 15.8363 9.4278C14.5273 9.3802 13.0074 9.00285 11.8594 7.76645C10.6933 6.51073 10.4181 5.07812 10.4412 3.92308C10.4454 3.71273 10.4596 3.51284 10.48 3.32663Z" fill="white" fill-opacity="0.4"/>
</svg>
