<svg width="21" height="19" viewBox="0 0 21 19" fill="none" xmlns="http://www.w3.org/2000/svg">
<path d="M10.5 18L7.125 14.6H4.875C3.97989 14.6 3.12145 14.2418 2.48851 13.6042C1.85558 12.9665 1.5 12.1017 1.5 11.2V4.4C1.5 3.49826 1.85558 2.63346 2.48851 1.99584C3.12145 1.35821 3.97989 1 4.875 1H16.125C17.0201 1 17.8786 1.35821 18.5115 1.99584C19.1444 2.63346 19.5 3.49826 19.5 4.4V11.2C19.5 12.1017 19.1444 12.9665 18.5115 13.6042C17.8786 14.2418 17.0201 14.6 16.125 14.6H13.875L10.5 18Z" stroke="#232425" stroke-width="2" stroke-linecap="round" stroke-linejoin="round"/>
<path d="M6.5 6H15.5" stroke="#232425" stroke-width="2" stroke-linecap="round" stroke-linejoin="round"/>
<path d="M6.5 10H12.5" stroke="#232425" stroke-width="2" stroke-linecap="round" stroke-linejoin="round"/>
</svg>
