<svg width="19" height="20" viewBox="0 0 19 20" fill="none" xmlns="http://www.w3.org/2000/svg">
<path d="M7.64615 1.24792C7.79556 0.878636 8.05185 0.562381 8.38217 0.339697C8.71249 0.117013 9.10178 -0.00195313 9.50015 -0.00195312C9.89852 -0.00195312 10.2878 0.117013 10.6181 0.339697C10.9484 0.562381 11.2047 0.878636 11.3541 1.24792C12.8329 1.65461 14.1373 2.53548 15.0669 3.75526C15.9966 4.97504 16.5001 6.46627 16.5002 7.99992V12.6969L18.3322 15.4449C18.4326 15.5955 18.4903 15.7706 18.4991 15.9514C18.5079 16.1322 18.4674 16.3121 18.382 16.4717C18.2966 16.6313 18.1695 16.7648 18.0142 16.8578C17.8588 16.9508 17.6812 17 17.5002 16.9999H12.9651C12.8447 17.833 12.4282 18.5949 11.7919 19.1459C11.1555 19.6969 10.3419 20.0001 9.50015 20.0001C8.65839 20.0001 7.84481 19.6969 7.20845 19.1459C6.57209 18.5949 6.15555 17.833 6.03515 16.9999H1.50015C1.31911 17 1.14145 16.9508 0.986141 16.8578C0.830829 16.7648 0.703685 16.6313 0.618276 16.4717C0.532866 16.3121 0.492394 16.1322 0.501178 15.9514C0.509961 15.7706 0.567671 15.5955 0.66815 15.4449L2.50015 12.6969V7.99992C2.50015 4.77592 4.68015 2.05992 7.64615 1.24792ZM8.08615 16.9999C8.18943 17.2926 8.38093 17.546 8.63427 17.7252C8.88761 17.9045 9.19031 18.0007 9.50065 18.0007C9.81099 18.0007 10.1137 17.9045 10.367 17.7252C10.6204 17.546 10.8119 17.2926 10.9151 16.9999H8.08515H8.08615ZM9.50015 2.99992C8.17407 2.99992 6.9023 3.52671 5.96462 4.46439C5.02693 5.40207 4.50015 6.67384 4.50015 7.99992V12.9999C4.50019 13.1975 4.44174 13.3906 4.33215 13.5549L3.36915 14.9999H15.6301L14.6671 13.5549C14.5579 13.3905 14.4998 13.1974 14.5001 12.9999V7.99992C14.5001 6.67384 13.9734 5.40207 13.0357 4.46439C12.098 3.52671 10.8262 2.99992 9.50015 2.99992Z" fill="#232425"/>
</svg>
