<svg width="25" height="24" viewBox="0 0 25 24" fill="none" xmlns="http://www.w3.org/2000/svg">
<path fill-rule="evenodd" clip-rule="evenodd" d="M15.8356 8.22345C15.8356 9.08945 15.4841 9.91998 14.8584 10.5323C14.2326 11.1447 13.3839 11.4887 12.499 11.4887C11.614 11.4887 10.7653 11.1447 10.1396 10.5323C9.51384 9.91998 9.1623 9.08945 9.1623 8.22345C9.1623 7.35744 9.51384 6.52691 10.1396 5.91455C10.7653 5.3022 11.614 4.95818 12.499 4.95818C13.3839 4.95818 14.2326 5.3022 14.8584 5.91455C15.4841 6.52691 15.8356 7.35744 15.8356 8.22345ZM15.9171 12.2371C16.7596 11.5496 17.3654 10.6248 17.6518 9.58851C17.9382 8.55219 17.8915 7.45468 17.5179 6.44529C17.1443 5.4359 16.462 4.56364 15.5639 3.94718C14.6657 3.33073 13.5953 3 12.4983 3C11.4013 3 10.3309 3.33073 9.43273 3.94718C8.53459 4.56364 7.85231 5.4359 7.47873 6.44529C7.10514 7.45468 7.05838 8.55219 7.34481 9.58851C7.63125 10.6248 8.23696 11.5496 9.07955 12.2371C7.76569 12.845 6.64548 13.7911 5.83884 14.9741C5.03221 16.1571 4.56952 17.5325 4.5003 18.9531C4.49386 19.2091 4.5901 19.4574 4.7684 19.6448C4.94671 19.8322 5.19291 19.9438 5.45428 19.9557C5.71565 19.9677 5.97141 19.879 6.1668 19.7087C6.36218 19.5384 6.48166 19.3 6.49964 19.0445C6.5724 17.5354 7.23624 16.1116 8.35336 15.0687C9.47048 14.0259 10.9551 13.444 12.499 13.444C14.0429 13.444 15.5275 14.0259 16.6446 15.0687C17.7617 16.1116 18.4255 17.5354 18.4983 19.0445C18.5016 19.175 18.5315 19.3034 18.5862 19.4224C18.6409 19.5414 18.7193 19.6484 18.8169 19.7373C18.9144 19.8262 19.0292 19.8952 19.1543 19.9401C19.2795 19.985 19.4126 20.005 19.5457 19.9989C19.6789 19.9928 19.8095 19.9608 19.9298 19.9046C20.0501 19.8485 20.1578 19.7694 20.2465 19.672C20.3351 19.5745 20.403 19.4608 20.4462 19.3373C20.4893 19.2139 20.5068 19.0833 20.4976 18.9531C20.4282 17.5324 19.9652 16.157 19.1583 14.974C18.3515 13.7909 17.2311 12.8449 15.9171 12.2371Z" fill="#232425"/>
</svg>
